# xmcd
#
# Track frame offsets:
#	150
#	15945
#	32007
#	47717
#	62261
#	75353
#	91198
#	107379
#	124111
#	139059
#	155813
#	173030
#
# Disc length: 2501 seconds
#
# Revision: 1
# Processed by: cddbd v1.5.2PL0 Copyright (c) Steve Scherf et al.
# Submitted via: audiograbber 1.83.01
#
DISCID=8209c30c
DTITLE=FERNANDO EXPRESS - ÜBER ALLE 7 MEERE
DYEAR=2007
DGENRE=Pop
TTITLE0=ÜBER ALLE 7 MEERE
TTITLE1=BARFUß BIS ANS ENDE DER WELT
TTITLE2=DIE INSEL DER VERLORENEN TRÄUME
TTITLE3=VINO IN PORTOFINO
TTITLE4=FIESTA CUBANA
TTITLE5=SANTO DOMINGO, DIE STERNE UND DU
TTITLE6=EIN SPANISCHES MÄRCHEN
TTITLE7=SONNENTAUCHER
TTITLE8=ICH BLEIB VIEL LÄNGER ALS DER SOMMER
TTITLE9=DU BIST MEIN SCHÖNSTES GEFÜHL
TTITLE10=HALLO BONJOUR MON AMOUR
TTITLE11=IM CABRIO NACH IRGENDWO
EXTD=
EXTT0=
EXTT1=
EXTT2=
EXTT3=
EXTT4=
EXTT5=
EXTT6=
EXTT7=
EXTT8=
EXTT9=
EXTT10=
EXTT11=
PLAYORDER=
